<?xml version="1.0" encoding="UTF-8" standalone="no"?>
<!-- Created with Inkscape (http://www.inkscape.org/) -->
<svg
   xmlns:dc="http://purl.org/dc/elements/1.1/"
   xmlns:cc="http://creativecommons.org/ns#"
   xmlns:rdf="http://www.w3.org/1999/02/22-rdf-syntax-ns#"
   xmlns:svg="http://www.w3.org/2000/svg"
   xmlns="http://www.w3.org/2000/svg"
   xmlns:xlink="http://www.w3.org/1999/xlink"
   xmlns:sodipodi="http://sodipodi.sourceforge.net/DTD/sodipodi-0.dtd"
   xmlns:inkscape="http://www.inkscape.org/namespaces/inkscape"
   width="576.48462"
   height="668.04187"
   id="svg14319"
   sodipodi:version="0.32"
   inkscape:version="0.46+devel"
   sodipodi:docname="swril2.svg"
   inkscape:output_extension="org.inkscape.output.svg.inkscape"
   version="1.0">
  <defs
     id="defs14321">
    <linearGradient
       id="linearGradient16007">
      <stop
         style="stop-color:#b28e92;stop-opacity:1;"
         offset="0"
         id="stop16009" />
      <stop
         id="stop16011"
         offset="0.47207335"
         style="stop-color:#e0c2c2;stop-opacity:1;" />
      <stop
         style="stop-color:#926066;stop-opacity:1;"
         offset="1"
         id="stop16013" />
    </linearGradient>
    <linearGradient
       id="linearGradient15880">
      <stop
         id="stop15882"
         offset="0"
         style="stop-color:#926066;stop-opacity:1;" />
      <stop
         style="stop-color:#eadada;stop-opacity:1;"
         offset="0.67206371"
         id="stop15884" />
      <stop
         id="stop15886"
         offset="1"
         style="stop-color:#926066;stop-opacity:1;" />
    </linearGradient>
    <linearGradient
       id="linearGradient15870">
      <stop
         id="stop15872"
         offset="0"
         style="stop-color:#926066;stop-opacity:1;" />
      <stop
         style="stop-color:#a2a2a2;stop-opacity:1;"
         offset="0.72760057"
         id="stop15874" />
      <stop
         id="stop15876"
         offset="1"
         style="stop-color:#926066;stop-opacity:1;" />
    </linearGradient>
    <inkscape:perspective
       sodipodi:type="inkscape:persp3d"
       inkscape:vp_x="0 : 526.18109 : 1"
       inkscape:vp_y="0 : 1000 : 0"
       inkscape:vp_z="744.09448 : 526.18109 : 1"
       inkscape:persp3d-origin="372.04724 : 350.78739 : 1"
       id="perspective14327" />
    <inkscape:perspective
       id="perspective14287"
       inkscape:persp3d-origin="0.5 : 0.33333333 : 1"
       inkscape:vp_z="1 : 0.5 : 1"
       inkscape:vp_y="0 : 1000 : 0"
       inkscape:vp_x="0 : 0.5 : 1"
       sodipodi:type="inkscape:persp3d" />
    <linearGradient
       id="linearGradient7641-9-9">
      <stop
         style="stop-color:#916f6f;stop-opacity:1;"
         offset="0"
         id="stop7643-3-6" />
      <stop
         id="stop7699-4-0"
         offset="0.5"
         style="stop-color:#f4d7d7;stop-opacity:1;" />
      <stop
         style="stop-color:#782121;stop-opacity:1"
         offset="1"
         id="stop7645-7-2" />
    </linearGradient>
    <linearGradient
       id="linearGradient7641-98">
      <stop
         style="stop-color:#916f6f;stop-opacity:1;"
         offset="0"
         id="stop7643-7" />
      <stop
         id="stop7699-2"
         offset="0.5"
         style="stop-color:#f4d7d7;stop-opacity:1;" />
      <stop
         style="stop-color:#782121;stop-opacity:1"
         offset="1"
         id="stop7645-82" />
    </linearGradient>
    <linearGradient
       id="linearGradient5081-3-0-0">
      <stop
         id="stop5083-6-4-4"
         offset="0"
         style="stop-color:#ff8888;stop-opacity:1;" />
      <stop
         id="stop5085-8-6-6"
         offset="1"
         style="stop-color:#aa0000;stop-opacity:1" />
    </linearGradient>
    <inkscape:perspective
       id="perspective15682"
       inkscape:persp3d-origin="0.5 : 0.33333333 : 1"
       inkscape:vp_z="1 : 0.5 : 1"
       inkscape:vp_y="0 : 1000 : 0"
       inkscape:vp_x="0 : 0.5 : 1"
       sodipodi:type="inkscape:persp3d" />
    <linearGradient
       id="linearGradient7641-9-9-1">
      <stop
         style="stop-color:#916f6f;stop-opacity:1;"
         offset="0"
         id="stop7643-3-6-3" />
      <stop
         id="stop7699-4-0-1"
         offset="0.5"
         style="stop-color:#a2a2a2;stop-opacity:1;" />
      <stop
         style="stop-color:#782121;stop-opacity:1"
         offset="1"
         id="stop7645-7-2-5" />
    </linearGradient>
    <linearGradient
       inkscape:collect="always"
       xlink:href="#linearGradient7641-98-1"
       id="linearGradient14275-8"
       gradientUnits="userSpaceOnUse"
       gradientTransform="matrix(1.3256965,-0.3328889,-0.31465088,0.91777836,-542.95197,285.31332)"
       x1="745.55219"
       y1="611.95172"
       x2="854.26245"
       y2="555.6123" />
    <linearGradient
       id="linearGradient7641-98-1">
      <stop
         style="stop-color:#926066;stop-opacity:1;"
         offset="0"
         id="stop7643-7-3" />
      <stop
         id="stop7699-2-3"
         offset="0.5937674"
         style="stop-color:#a2a2a2;stop-opacity:1;" />
      <stop
         style="stop-color:#926066;stop-opacity:1;"
         offset="1"
         id="stop7645-82-9" />
    </linearGradient>
    <linearGradient
       inkscape:collect="always"
       xlink:href="#linearGradient7635-6-5"
       id="linearGradient14278-7"
       gradientUnits="userSpaceOnUse"
       gradientTransform="matrix(0.37483923,0.63903493,-0.64924059,0.368947,560.24103,154.51573)"
       x1="235.28279"
       y1="578.9671"
       x2="248.43416"
       y2="689.74054" />
    <linearGradient
       id="linearGradient7635-6-5"
       inkscape:collect="always">
      <stop
         id="stop7637-7-4"
         offset="0"
         style="stop-color:#8eb9cf;stop-opacity:1;" />
      <stop
         id="stop7639-5-4"
         offset="1"
         style="stop-color:#536c5d;stop-opacity:1" />
    </linearGradient>
    <linearGradient
       inkscape:collect="always"
       xlink:href="#linearGradient5081-3-0-0-6"
       id="linearGradient14264-9"
       gradientUnits="userSpaceOnUse"
       gradientTransform="matrix(0.74318447,0,0,0.74318447,-241.63999,112.75644)"
       x1="1304.9836"
       y1="164.82797"
       x2="672.62848"
       y2="558.53339" />
    <linearGradient
       id="linearGradient5081-3-0-0-6">
      <stop
         id="stop5083-6-4-4-7"
         offset="0"
         style="stop-color:#ff8888;stop-opacity:1;" />
      <stop
         id="stop5085-8-6-6-2"
         offset="1"
         style="stop-color:#aa0000;stop-opacity:1" />
    </linearGradient>
    <linearGradient
       inkscape:collect="always"
       xlink:href="#linearGradient5057-8-05-0"
       id="linearGradient14267-1"
       gradientUnits="userSpaceOnUse"
       gradientTransform="matrix(0.74318447,0,0,0.74318447,-865.24444,119.46187)"
       x1="1671.3939"
       y1="561.09601"
       x2="1555.9606"
       y2="641.4903" />
    <linearGradient
       inkscape:collect="always"
       id="linearGradient5057-8-05-0">
      <stop
         style="stop-color:#000000;stop-opacity:1"
         offset="0"
         id="stop5059-1-6-1" />
      <stop
         style="stop-color:#c8b7b7;stop-opacity:0;"
         offset="1"
         id="stop5061-2-64-3" />
    </linearGradient>
    <linearGradient
       inkscape:collect="always"
       xlink:href="#linearGradient15880"
       id="linearGradient15878"
       gradientUnits="userSpaceOnUse"
       gradientTransform="matrix(1.3256965,-0.3328889,-0.31465088,0.91777836,-542.95197,285.31332)"
       x1="562.69495"
       y1="344.09158"
       x2="701.63361"
       y2="265.83652" />
    <inkscape:perspective
       id="perspective15897"
       inkscape:persp3d-origin="0.5 : 0.33333333 : 1"
       inkscape:vp_z="1 : 0.5 : 1"
       inkscape:vp_y="0 : 1000 : 0"
       inkscape:vp_x="0 : 0.5 : 1"
       sodipodi:type="inkscape:persp3d" />
    <linearGradient
       id="linearGradient15880-6">
      <stop
         id="stop15882-1"
         offset="0"
         style="stop-color:#926066;stop-opacity:1;" />
      <stop
         style="stop-color:#a2a2a2;stop-opacity:1;"
         offset="0.67206371"
         id="stop15884-5" />
      <stop
         id="stop15886-5"
         offset="1"
         style="stop-color:#926066;stop-opacity:1;" />
    </linearGradient>
    <linearGradient
       y2="246.97116"
       x2="689.92676"
       y1="344.09158"
       x1="562.69495"
       gradientTransform="matrix(1.3832849,-0.34734963,-0.32831935,0.95764677,-681.51748,3.1346727)"
       gradientUnits="userSpaceOnUse"
       id="linearGradient15907"
       xlink:href="#linearGradient15880-6"
       inkscape:collect="always" />
    <inkscape:perspective
       id="perspective15955"
       inkscape:persp3d-origin="0.5 : 0.33333333 : 1"
       inkscape:vp_z="1 : 0.5 : 1"
       inkscape:vp_y="0 : 1000 : 0"
       inkscape:vp_x="0 : 0.5 : 1"
       sodipodi:type="inkscape:persp3d" />
    <linearGradient
       inkscape:collect="always"
       xlink:href="#linearGradient15880-8"
       id="linearGradient15878-6"
       gradientUnits="userSpaceOnUse"
       gradientTransform="matrix(1.3256965,-0.3328889,-0.31465088,0.91777836,-542.95197,285.31332)"
       x1="809.80957"
       y1="765.78693"
       x2="893.14752"
       y2="704.95697" />
    <linearGradient
       id="linearGradient15880-8">
      <stop
         id="stop15882-0"
         offset="0"
         style="stop-color:#926066;stop-opacity:1;" />
      <stop
         style="stop-color:#eadada;stop-opacity:1;"
         offset="0.67206371"
         id="stop15884-8" />
      <stop
         id="stop15886-6"
         offset="1"
         style="stop-color:#926066;stop-opacity:1;" />
    </linearGradient>
    <linearGradient
       y2="265.83652"
       x2="701.63361"
       y1="344.09158"
       x1="562.69495"
       gradientTransform="matrix(1.3832849,-0.34734963,-0.32831935,0.95764677,-681.51748,2.8068691)"
       gradientUnits="userSpaceOnUse"
       id="linearGradient15965"
       xlink:href="#linearGradient15880-8"
       inkscape:collect="always" />
    <inkscape:perspective
       id="perspective15955-5"
       inkscape:persp3d-origin="0.5 : 0.33333333 : 1"
       inkscape:vp_z="1 : 0.5 : 1"
       inkscape:vp_y="0 : 1000 : 0"
       inkscape:vp_x="0 : 0.5 : 1"
       sodipodi:type="inkscape:persp3d" />
    <linearGradient
       inkscape:collect="always"
       xlink:href="#linearGradient16007"
       id="linearGradient15878-5"
       gradientUnits="userSpaceOnUse"
       gradientTransform="matrix(1.3256965,-0.3328889,-0.31465088,0.91777836,-542.95197,285.31332)"
       x1="746.88281"
       y1="522.19269"
       x2="782.36005"
       y2="503.96222" />
    <linearGradient
       id="linearGradient15880-3">
      <stop
         id="stop15882-9"
         offset="0"
         style="stop-color:#926066;stop-opacity:1;" />
      <stop
         style="stop-color:#eadada;stop-opacity:1;"
         offset="0.67206371"
         id="stop15884-1" />
      <stop
         id="stop15886-50"
         offset="1"
         style="stop-color:#926066;stop-opacity:1;" />
    </linearGradient>
    <linearGradient
       y2="265.83652"
       x2="701.63361"
       y1="344.09158"
       x1="562.69495"
       gradientTransform="matrix(1.3832849,-0.34734963,-0.32831935,0.95764677,-681.51748,2.8068691)"
       gradientUnits="userSpaceOnUse"
       id="linearGradient15965-4"
       xlink:href="#linearGradient15880-3"
       inkscape:collect="always" />
    <linearGradient
       inkscape:collect="always"
       xlink:href="#linearGradient7641-98-1"
       id="linearGradient2720"
       gradientUnits="userSpaceOnUse"
       gradientTransform="matrix(1.3256965,-0.3328889,-0.31465088,0.91777836,-542.95197,285.31332)"
       x1="745.55219"
       y1="611.95172"
       x2="854.26245"
       y2="555.6123" />
    <linearGradient
       inkscape:collect="always"
       xlink:href="#linearGradient7641-98-1"
       id="linearGradient2722"
       gradientUnits="userSpaceOnUse"
       gradientTransform="matrix(1.3256965,-0.3328889,-0.31465088,0.91777836,-542.95197,285.31332)"
       x1="745.55219"
       y1="611.95172"
       x2="854.26245"
       y2="555.6123" />
  </defs>
  <sodipodi:namedview
     id="base"
     pagecolor="#ffffff"
     bordercolor="#666666"
     borderopacity="1.0"
     inkscape:pageopacity="0.0"
     inkscape:pageshadow="2"
     inkscape:zoom="0.5"
     inkscape:cx="765.4129"
     inkscape:cy="267.81251"
     inkscape:document-units="px"
     inkscape:current-layer="layer1"
     showgrid="false"
     inkscape:window-width="1280"
     inkscape:window-height="748"
     inkscape:window-x="0"
     inkscape:window-y="26" />
  <metadata
     id="metadata14324">
    <rdf:RDF>
      <cc:Work
         rdf:about="">
        <dc:format>image/svg+xml</dc:format>
        <dc:type
           rdf:resource="http://purl.org/dc/dcmitype/StillImage" />
      </cc:Work>
    </rdf:RDF>
  </metadata>
  <g
     inkscape:label="Camada 1"
     inkscape:groupmode="layer"
     id="layer1"
     transform="translate(-91.757693,-215.48412)">
    <path
       style="font-style:normal;font-variant:normal;font-weight:normal;font-stretch:normal;letter-spacing:normal;word-spacing:normal;text-anchor:start;opacity:1;color:#000000;fill:#87b4cc;fill-opacity:1;fill-rule:nonzero;stroke:none;stroke-width:0;marker:none;marker-start:none;marker-mid:none;marker-end:none;visibility:visible;display:inline;overflow:visible;enable-background:accumulate"
       d="m 420.09612,229.38996 c -10.65326,0.88549 -21.23846,1.36145 -31.70146,2.60114 l 4.62167,0.58061 0.69673,-0.23224 0.76642,-0.16257 0.74318,-0.25547 0.83609,-0.16258 0.7664,-0.11611 0.81286,-0.1858 0.83608,-0.11613 0.81286,-0.11611 1.78829,-0.1858 1.69539,-0.16257 1.78829,-0.11613 1.76505,-0.0697 3.62303,-0.23225 1.76506,-0.0697 1.78829,-0.11612 1.71861,-0.16258 1.6954,-0.18579 0.7664,-0.11612 0.81286,-0.11613 0.83608,-0.11611 0.76642,-0.1858 z m -46.54193,4.59845 c -17.31153,0.94454 -41.35024,9.39296 -33.93102,1.71861 -28.28183,11.74766 -78.4455,28.23141 -106.60053,52.78933 l -0.88253,-5.50422 c -12.93608,14.40417 -56.30919,43.04039 -59.73345,61.75399 l -3.48368,0.76641 c -6.65827,10.56699 -11.04665,22.54534 -16.37328,33.46653 -8.75087,13.93189 -12.85727,5.38695 -11.58903,7.57119 -17.31153,32.58647 -25.88473,59.97851 -33.30395,82.47025 5.32663,7.32015 0.13069,44.19789 2.15988,73.71462 -8.68747,145.87166 109.94635,287.44536 239.56087,320.14997 19.02366,6.31651 47.24907,6.08583 71.34571,6.73503 -28.40866,-7.55625 -32.01607,-4.03262 -59.66378,-13.00573 -19.91143,-8.73687 -24.29565,-18.70543 -38.43658,-30.0989 l 5.57389,9.22008 c -27.64817,-9.15012 -16.08781,-11.28174 -38.59915,-17.95253 l 5.94548,-7.26927 c -8.94112,-0.59034 -23.78155,-14.04446 -27.77651,-21.48268 l -9.82398,0.34838 c -11.79467,-13.57771 -18.07129,-23.31975 -17.6274,-30.93506 l -3.15854,5.27196 c -3.61449,-5.72625 -43.39221,-50.77926 -22.78325,-40.27131 -3.80473,-3.30587 -8.92878,-5.3148 -14.44565,-14.70112 l 4.18041,-4.48232 c -9.89229,-11.86573 -18.26152,-27.15876 -17.6274,-32.23563 5.32662,6.67078 8.99642,7.9127 12.61091,9.03433 -25.11123,-57.91181 -26.49013,-3.12138 -45.45038,-58.96704 l 3.99463,-0.30192 c -3.10721,-4.30944 -4.95878,-9.02818 -7.43185,-13.63279 l 1.71861,-16.23393 c -18.00907,-19.42202 -5.01525,-82.6544 -2.41535,-117.30703 1.77554,-14.109 15.09284,-29.09562 25.17538,-52.64998 l -6.1545,-1.02187 c 11.73126,-19.06781 67.09999,-76.66629 92.78193,-73.71462 12.4288,-14.52222 -2.46748,-0.01 -4.87714,-3.66946 27.26725,-26.32893 35.82274,-18.59475 54.27569,-23.31742 19.84801,-10.98022 -17.07232,4.32041 -7.68732,-4.18042 34.36941,-8.14661 24.37038,-18.53477 69.13939,-22.66712 4.75591,2.4794 -10.97859,3.83664 -14.91014,7.08348 28.59891,-13.0464 90.55068,-10.05075 130.75402,7.24605 46.67142,20.24847 99.11357,80.29737 101.14272,136.79239 l 2.34571,0.53416 c -1.14142,22.49174 3.7362,48.40196 -4.76099,72.25147 l 5.7828,-11.28711 0.047,1.60249 0,1.53281 -0.047,1.48637 -0.07,1.46314 -0.07,1.37025 -0.11616,1.4167 -0.18582,1.27735 -0.20902,1.30057 -0.25541,1.25412 -0.23231,1.30058 -0.2555,1.18444 -0.32508,1.16123 -0.62706,2.36891 -0.76641,2.29922 -0.83608,2.25278 -0.88256,2.29923 -0.95214,2.25278 -0.99871,2.29922 -1.02191,2.34568 -1.02191,2.48502 -0.51081,1.30057 -0.48781,1.30058 -0.5109,1.30057 -0.51091,1.34702 -9.82395,4.62168 c -8.05335,14.58127 0.75395,9.2028 -5.01647,20.83239 -12.61912,10.44892 -38.176,32.57417 -46.35615,34.5813 -6.02426,-0.11807 3.98666,-6.54234 5.31838,-9.08079 -16.8043,10.7441 -13.50411,16.18409 -39.24943,22.7368 l -0.76642,-1.60249 C 422.23535,646.17147 334.0452,591.03911 335.18662,515.77145 c -0.69754,4.78171 -1.97249,3.60255 -3.36755,5.55066 -3.23403,-38.72595 19.21181,-77.63448 57.1323,-93.45544 37.09613,-17.11971 80.54176,-10.08699 107.11147,12.93604 -14.58481,-17.76906 -43.62479,-36.67744 -78.0576,-34.90644 -33.7353,0.53129 -65.25517,20.4998 -75.78159,42.10605 -17.24813,10.15375 -19.272,39.02258 -26.75465,44.3356 -10.14595,69.30527 19.01507,99.21633 68.34975,134.40026 4.04743,2.54261 4.46238,3.95707 4.08752,5.24875 0.0313,-0.0353 0.0521,-0.0623 0.0929,-0.0929 58.21238,20.18944 118.33671,15.27297 168.74931,-22.27231 12.80936,-9.32728 26.80699,-25.13762 30.86539,-25.31471 -6.08756,8.50081 1.02306,4.07919 -3.6695,11.63547 12.74592,-19.18586 -5.50879,-7.85183 13.26133,-33.11815 l 6.89757,8.84854 c -2.59986,-15.93904 21.26169,-35.23549 18.78862,-60.38375 5.4534,-7.73338 6.07251,8.25498 0.30198,25.96502 8.05336,-19.65815 2.15115,-22.84202 4.1804,-39.01719 2.21939,5.43108 5.14347,11.21507 6.66536,17.00034 -5.26317,-19.00877 5.38948,-31.99577 7.98924,-43.03502 -2.59976,-1.06261 -8.04473,8.38188 -9.31294,-14.05083 0.19014,-9.74053 2.9166,-5.08114 3.99458,-7.50152 -2.0926,-1.0626 -7.47873,-8.56683 -10.77619,-22.85292 2.40963,-3.36492 6.34076,8.74786 9.63822,9.22013 -2.09269,-11.39346 -5.72577,-20.08467 -5.85257,-28.82163 -9.44845,-18.3594 -3.35879,2.43453 -11.03168,-7.89633 -10.01907,-29.22156 8.37001,-6.78346 9.63822,-20.06598 15.21889,20.60268 23.92078,52.46802 27.91583,65.63248 -3.04387,-16.05709 -8.00343,-31.69742 -14.02764,-46.75095 4.69256,1.83004 -7.42189,-33.12766 6.08487,-9.98654 -14.45794,-49.29293 -61.63046,-95.33983 -105.06763,-117.0051 5.32661,4.54557 12.04774,10.21582 9.63811,11.10131 -21.6236,-11.98379 -17.8182,-12.85245 -20.92537,-17.92932 -17.56509,-6.67079 -18.70983,0.5313 -30.37767,0 -33.16453,-16.35227 -39.56706,-14.66067 -70.06833,-24.87346 l 1.39347,6.03837 c -22.00402,-6.84788 -25.61896,2.59747 -49.39854,0 -1.45848,-1.0626 7.6133,-3.78067 15.09594,-4.78425 -21.2431,2.59748 -20.27871,-3.90787 -41.0145,0.69674 5.07298,-3.36491 10.52502,-5.55044 15.97847,-8.38405 z m 25.03603,7.68731 3.99461,-0.34836 0.25547,-0.48772 -4.25008,0.83608 z m 4.25008,-0.83608 c 6.72168,-1.35777 8.19193,-2.58079 -12.09997,-3.11208 l 1.138,0.16257 1.138,0.1858 1.20768,0.16257 1.13799,0.1858 0.51095,0.0697 0.55738,0.11612 0.58061,0.0465 0.51095,0.11612 0.51093,0.0697 0.48773,0.11613 0.46448,0.0465 0.48771,0.13935 0.44127,0.0465 0.39482,0.11612 0.37159,0.11612 0.39482,0.0697 0.37159,0.11613 0.25547,0.11612 0.32515,0.0465 0.25546,0.13934 0.1858,0.11613 0.1858,0.11612 0.0697,0.0465 0.0465,0.0697 0.0697,0.0465 0.0697,0 0,0.0697 0.0697,0.0465 0,0.0697 0,0.0697 0,0.11612 0,0.0465 -0.0697,0.0697 -0.0697,0.0465 z m -14.93336,391.14729 c -0.11818,0.1331 -0.17166,0.29226 -0.16258,0.48771 0.067,-0.16062 0.11542,-0.32523 0.16258,-0.48771 z m -0.16258,0.48771 c -0.42636,1.02311 -1.14497,2.05339 -0.69673,3.59979 -16.36034,-7.14303 -31.38961,-17.95638 -43.75499,-31.12084 6.59487,8.85502 13.62867,17.59689 22.76003,24.38574 -15.47259,-4.84075 -36.14531,-34.88701 -42.10604,-36.06768 26.63311,44.39317 108.12036,77.87791 150.79677,61.2895 -19.78461,0.64937 -44.83168,0.34605 -67.02595,-7.26927 -8.52714,-4.10417 -19.84964,-12.16335 -19.97309,-14.81724 z M 122.49718,366.46104 c -0.006,0.27375 0.0346,0.51241 0.0697,0.71997 l -0.0697,-0.71997 z m 0.0697,0.81286 0.0465,0.60384 0,0.71996 0,0.65029 0,0.65028 0,0.65029 -0.0465,0.58061 -0.0697,0.65029 -0.0697,0.60384 -0.0465,0.58061 -0.13935,0.53416 -0.11612,0.58061 -0.13935,0.53417 -0.11611,0.46449 -0.13936,0.53417 -0.18579,0.48771 -0.11613,0.46449 -0.20902,0.46449 -0.1858,0.41804 -0.11611,0.41805 -0.1858,0.41804 -0.20902,0.39481 -0.1858,0.37159 -0.11612,0.34837 -0.20902,0.34837 -0.18579,0.30191 -0.1858,0.30193 -0.11613,0.27869 -0.20902,0.30191 -0.11611,0.23226 -0.11613,0.23224 -0.13935,0.1858 -0.11612,0.18578 -0.13935,0.16258 -0.11612,0.1858 -0.0697,0.11612 -0.0697,0.11612 -0.0465,0.11613 -0.0697,0.0697 0,0.0465 0,0.0697 0.0697,0 0.11611,-0.0697 0.0697,-0.0465 0.11612,-0.11612 0.1858,-0.11613 0.13935,-0.13935 0.25547,-0.11611 0.0465,-0.11613 0.13935,-0.0465 0.11612,-0.11612 0.20902,-0.0697 0.11613,-0.11611 0.11612,-0.11613 0.20902,-0.11612 0.11612,-0.11612 0.1858,-0.11613 0.20902,-0.11612 0.1858,-0.18579 0.18579,-0.11613 0.25547,-0.18579 0.1858,-0.11613 0.25546,-0.16257 0.25547,-0.1858 0.1858,-0.18579 0.25548,-0.16257 0.32513,-0.18579 0.25547,-0.1858 0.30193,-0.16257 0.25546,-0.1858 0.32515,-0.23225 0.30191,-0.18579 0.32515,-0.23225 0.32514,-0.23224 0.37159,-0.23224 0.39482,-0.23225 c 7.8377,-16.55741 -2.21275,-5.9631 -3.11208,-10.35814 z m -12.68059,47.77283 c -9.892303,11.74766 -4.58251,14.30279 -5.59711,22.27231 l 0.32515,-0.9522 0.32513,-0.95221 0.30193,-0.88253 0.25546,-0.88253 0.25547,-0.83608 0.25548,-0.81286 0.25547,-0.83608 0.18579,-0.81286 0.25547,-0.76641 0.1858,-0.76642 0.1858,-0.71995 0.20902,-0.76641 0.11611,-0.71996 0.1858,-0.69674 0.32515,-1.34702 0.25546,-1.30058 0.25547,-1.25412 0.25548,-1.2309 0.25547,-1.18444 0.25546,-1.18445 0.1858,-1.11479 0.25547,-1.11477 0.25547,-1.138 z m 405.96452,70.97412 -0.13935,0.0465 -0.18579,0 -0.11616,0.11613 -0.13927,0.0697 -0.11617,0.11613 -0.18579,0.11611 -0.13934,0.11613 -0.11609,0.11612 -0.13943,0.18579 -0.18579,0.16258 -0.11609,0.1858 -0.13935,0.23224 -0.11615,0.1858 -0.20898,0.23224 -0.11609,0.23224 -0.11617,0.23225 -0.13934,0.30192 -0.11609,0.23225 -0.13941,0.30191 -0.1858,0.30192 -0.13927,0.2787 -0.11617,0.30192 -0.0697,0.30191 -0.11616,0.27869 -0.13935,0.3716 -0.11608,0.2787 -0.13942,0.37158 -0.1858,0.6503 -0.1858,0.69673 c 2.15613,1.00356 3.86991,13.46984 5.8991,5.73646 l 0,-0.41804 0.0697,-0.4645 0,-0.41804 0.0465,-0.41804 0,-0.41804 0,-0.41805 0.0697,-0.34836 0,-0.41804 0,-0.34837 0,-0.34837 0,-0.34836 0,-0.37159 0.0697,-0.34838 0,-0.30191 0,-0.34837 -0.0697,-0.30192 0,-0.27869 0,-0.30192 0,-0.30192 0,-0.27869 0,-0.25547 0,-0.2787 -0.0697,-0.25547 0,-0.23224 0,-0.27869 -0.0465,-0.25548 0,-0.16257 0,-0.23225 -0.0697,-0.25547 0,-0.16257 -0.0697,-0.23224 0,-0.1858 -0.0697,-0.1858 0,-0.16256 -0.0464,-0.1858 0,-0.16257 -0.0697,-0.13935 -0.0697,-0.16257 0,-0.11612 -0.0464,-0.1858 -0.0697,-0.11613 0,-0.11611 -0.0697,-0.11613 -0.0697,-0.11612 -0.0465,-0.11613 0,-0.0697 -0.0697,-0.11612 -0.0697,-0.0465 -0.0697,-0.13934 -0.0465,-0.0465 -0.13928,-0.11611 -0.0465,-0.11613 -0.13927,-0.11612 -0.11617,-0.0697 -0.13934,-0.0465 -0.11609,0 -0.13942,0 -0.11608,0 z m 124.6692,32.16595 -1.64897,3.90172 c -3.04378,20.30751 -9.64761,40.38214 -19.85691,59.03671 11.22393,-19.65813 18.4621,-41.15508 21.50588,-62.93843 z m -131.9617,7.12992 c -1.52189,7.02499 -5.58421,13.1204 -9.45238,19.55505 -21.30649,12.45605 -2.02919,-7.44676 0,-15.00304 -22.95521,26.86022 -3.17026,16.12209 -3.99461,23.61934 l 1.25412,-1.64894 1.20768,-1.64895 1.138,-1.71862 1.09155,-1.64894 1.06833,-1.78828 1.02192,-1.69539 0.95217,-1.71862 0.88253,-1.76505 0.83608,-1.76507 0.74318,-1.78829 0.69674,-1.83473 0.69673,-1.81152 0.58065,-1.78829 0.51087,-1.81151 0.37158,-1.90441 0.39486,-1.83474 z M 462.13248,566.308 c -9.25818,2.1252 -18.70595,2.17348 -28.21778,1.34701 l -0.51094,0 -0.44127,0.0697 -0.44126,0 -0.44127,0.0465 -0.39481,0 -0.30192,0.0697 -0.32514,0.0465 -0.25547,0.0697 -0.25547,0.0465 -0.25548,0.0697 -0.11611,0.0465 -0.1858,0.11613 -0.13935,0.0697 -0.0697,0.11612 -0.0465,0.11612 -0.0697,0.0697 0,0.11613 0.0697,0.11612 0.0465,0.11612 0.0697,0.11613 0.0697,0.11612 0.11612,0.11612 0.20902,0.11612 0.11612,0.1858 0.25547,0.11613 0.1858,0.11611 0.25547,0.1858 0.25546,0.11613 0.32515,0.11611 0.30191,0.16258 0.32515,0.13935 0.32514,0.16257 0.37159,0.18579 0.3716,0.11613 0.46449,0.16257 0.37159,0.13934 0.44126,0.16257 0.44127,0.1858 0.51094,0.11613 0.44127,0.18579 0.51093,0.16257 0.55739,0.11613 1.02188,0.34837 1.13801,0.30191 1.20767,0.30192 1.20767,0.30192 1.27735,0.27869 1.25413,0.30192 1.34702,0.23225 1.3238,0.23224 1.32379,0.30193 1.39348,0.18578 1.39346,0.23226 c 4.12179,-3.01072 7.81015,-6.013 11.17099,-8.96467 z m -143.82942,1.41669 c 2.5365,8.61888 7.69242,15.9237 12.44835,23.47998 l -3.5069,-9.61494 -0.69674,-0.76641 -0.69673,-0.83609 -0.62707,-0.76641 -0.62706,-0.81286 -0.65028,-0.90575 -0.55739,-0.81286 -0.58062,-0.88253 -0.51093,-0.83608 -0.48772,-0.92898 -0.51094,-0.90576 -1.02188,-1.76506 -0.95221,-1.83474 -1.02188,-1.81151 z m -8.73241,14.51532 -1.6025,7.43185 c 7.48265,9.44534 13.45723,19.72383 22.96905,27.10301 -6.84851,-12.45606 -11.98156,-17.6513 -21.36655,-34.53486 z"
       id="path2489" />
    <path
       style="font-style:normal;font-variant:normal;font-weight:normal;font-stretch:normal;letter-spacing:normal;word-spacing:normal;text-anchor:start;opacity:0.34351148;color:#000000;fill:url(#linearGradient14267-1);fill-opacity:1;fill-rule:nonzero;stroke:none;stroke-width:0;marker:none;marker-start:none;marker-mid:none;marker-end:none;visibility:visible;display:inline;overflow:visible;enable-background:accumulate"
       d="m 229.14416,286.05777 c -15.57477,15.11605 -53.5421,41.22551 -56.7375,58.68835 l -3.48368,0.76641 c -6.65827,10.56699 -11.04665,22.54534 -16.37328,33.46653 -8.75087,13.93189 -12.85727,5.38695 -11.58903,7.57119 -17.31153,32.58647 -25.88473,59.97851 -33.30395,82.47025 5.32663,7.32015 0.13069,44.19789 2.15988,73.71462 -8.68747,145.87166 109.94635,287.44536 239.56087,320.14997 19.02366,6.31642 47.24907,6.08583 71.34571,6.73503 -28.40866,-7.55625 -32.01607,-4.03262 -59.66378,-13.00573 -19.91143,-8.73687 -24.29565,-18.70543 -38.43658,-30.0989 l 5.57389,9.22008 c -27.64817,-9.15012 -16.08781,-11.28174 -38.59915,-17.95253 l 5.94548,-7.26927 c -8.94112,-0.59034 -23.78155,-14.04446 -27.77651,-21.48268 l -9.82398,0.34838 c -11.79467,-13.57771 -18.07129,-23.31975 -17.6274,-30.93506 l -3.15854,5.27196 c -3.61449,-5.72625 -43.39221,-50.77926 -22.78325,-40.27131 -3.80473,-3.30587 -8.92878,-5.3148 -14.44565,-14.70112 l 4.18041,-4.48232 c -9.89229,-11.86573 -18.26152,-27.15876 -17.6274,-32.23563 5.32662,6.67078 8.99642,7.9127 12.61091,9.03433 -25.11123,-57.91181 -26.49013,-3.12138 -45.45038,-58.96704 l 3.99463,-0.30192 c -3.10721,-4.30944 -4.95878,-9.02818 -7.43185,-13.63279 l 1.71861,-16.23393 c -18.00907,-19.42202 -5.01525,-82.6544 -2.41535,-117.30703 1.77554,-14.109 15.09284,-29.09562 25.17538,-52.64998 l -6.1545,-1.02187 c 11.73126,-19.06781 67.09999,-76.66629 92.78193,-73.71462 0.28183,-0.32928 0.489,-0.55931 0.74319,-0.8593 9.02623,-10.14521 1.20154,-4.14164 -1.60249,-2.94951 -1.73139,0.76675 -3.35244,1.15004 -4.01784,0.13935 0.91704,-0.8855 1.81823,-1.72128 2.69404,-2.53148 5.81279,-6.54884 17.06637,-12.7134 20.23004,-14.83367 -0.87884,-17.93859 -42.33535,-25.6956 -50.21288,-40.13876 l 0,0 z m -106.64698,80.40327 c -0.006,0.27375 0.0346,0.51241 0.0697,0.71997 l -0.0697,-0.71997 z m 0.0697,0.81286 0.0465,0.60384 0,0.71996 0,0.65029 0,0.65028 0,0.65029 -0.0465,0.58061 -0.0697,0.65029 -0.0697,0.60384 -0.0465,0.58061 -0.13935,0.53416 -0.11612,0.58061 -0.13935,0.53417 -0.11611,0.46449 -0.13936,0.53417 -0.18579,0.48771 -0.11613,0.46449 -0.20902,0.46449 -0.1858,0.41804 -0.11611,0.41805 -0.1858,0.41804 -0.20902,0.39481 -0.1858,0.37159 -0.11612,0.34837 -0.20902,0.34837 -0.18579,0.30191 -0.1858,0.30193 -0.11613,0.27869 -0.20902,0.30191 -0.11611,0.23226 -0.11613,0.23224 -0.13935,0.1858 -0.11612,0.18578 -0.13935,0.16258 -0.11612,0.1858 -0.0697,0.11612 -0.0697,0.11612 -0.0465,0.11613 -0.0697,0.0697 0,0.0465 0,0.0697 0.0697,0 0.11611,-0.0697 0.0697,-0.0465 0.11612,-0.11612 0.1858,-0.11613 0.13935,-0.13935 0.25547,-0.11611 0.0465,-0.11613 0.13935,-0.0465 0.11612,-0.11612 0.20902,-0.0697 0.11613,-0.11611 0.11612,-0.11613 0.20902,-0.11612 0.11612,-0.11612 0.1858,-0.11613 0.20902,-0.11612 0.1858,-0.18579 0.18579,-0.11613 0.25547,-0.18579 0.1858,-0.11613 0.25546,-0.16257 0.25547,-0.1858 0.1858,-0.18579 0.25548,-0.16257 0.32513,-0.18579 0.25547,-0.1858 0.30193,-0.16257 0.25546,-0.1858 0.32515,-0.23225 0.30191,-0.18579 0.32515,-0.23225 0.32514,-0.23224 0.37159,-0.23224 0.39482,-0.23225 c 7.8377,-16.55741 -2.21275,-5.9631 -3.11208,-10.35814 l 3e-5,3e-5 z m -12.68059,47.77283 c -9.892303,11.74766 -4.58251,14.30279 -5.59711,22.27231 l 0.32515,-0.9522 0.32513,-0.95221 0.30193,-0.88253 0.25546,-0.88253 0.25547,-0.83608 0.25548,-0.81286 0.25547,-0.83608 0.18579,-0.81286 0.25547,-0.76641 0.1858,-0.76642 0.1858,-0.71995 0.20902,-0.76641 0.11611,-0.71996 0.1858,-0.69674 0.32515,-1.34702 0.25546,-1.30058 0.25547,-1.25412 0.25548,-1.2309 0.25547,-1.18444 0.25546,-1.18445 0.1858,-1.11479 0.25547,-1.11477 0.25547,-1.138 0,0 z m 217.66015,51.39585 c -5.03702,11.02736 -7.58259,22.70429 -12.07674,25.89534 -10.14596,69.30527 19.01506,99.21633 68.34974,134.40026 4.04743,2.54261 4.46238,3.95707 4.08752,5.24875 0.0313,-0.0353 0.0521,-0.0623 0.0929,-0.0929 11.51578,3.99395 23.09875,6.99395 34.6742,8.96466 L 410.24889,618.0987 c -41.40534,-15.87821 -75.77703,-55.15212 -75.06163,-102.32721 -0.69754,4.78171 -1.97248,3.60254 -3.36755,5.55066 -1.07801,-12.90865 0.71939,-25.83826 4.97004,-37.92564 l -9.24336,-16.95389 3e-5,-4e-5 z m 60.36052,165.54435 c -0.11818,0.1331 -0.17166,0.29226 -0.16258,0.48771 0.067,-0.16062 0.11542,-0.32523 0.16258,-0.48771 z m -0.16258,0.48771 c -0.42636,1.02311 -1.14497,2.05339 -0.69673,3.59979 -16.36034,-7.14303 -31.38961,-17.95638 -43.75499,-31.12084 6.59487,8.85502 13.62867,17.59689 22.76003,24.38574 -15.47259,-4.84075 -36.14531,-34.88701 -42.10604,-36.06768 19.17147,31.95581 66.77268,58.26577 107.85464,64.30869 l -2.78694,-5.10939 c -7.21358,-1.14527 -14.39122,-2.80959 -21.29688,-5.17907 -8.52714,-4.10417 -19.84964,-12.16335 -19.97309,-14.81724 l 0,0 z m -69.4413,-64.74995 c 2.5365,8.61888 7.69242,15.9237 12.44835,23.47998 l -3.5069,-9.61494 -0.69674,-0.76641 -0.69673,-0.83609 -0.62707,-0.76641 -0.62706,-0.81286 -0.65028,-0.90575 -0.55739,-0.81286 -0.58062,-0.88253 -0.51093,-0.83608 -0.48772,-0.92898 -0.51094,-0.90576 -1.02188,-1.76506 -0.95221,-1.83474 -1.02188,-1.81151 0,0 z m -8.73241,14.51532 -1.6025,7.43185 c 7.48265,9.44534 13.45723,19.72383 22.96905,27.10301 -6.84851,-12.45606 -11.98156,-17.6513 -21.36655,-34.53486 l 0,0 z"
       id="path5662"
       sodipodi:nodetypes="cccccccccccccccccccccccccccccccccccccccccccccccccccccccccccccccccccccccccccccccccccccccccccccccccccccccccccccccccccccccccccccccccccccccccccccccccccccccccccccccccccccccccccccccccccccccccccccccc" />
    <path
       style="font-style:normal;font-variant:normal;font-weight:normal;font-stretch:normal;letter-spacing:normal;word-spacing:normal;text-anchor:start;color:#000000;fill:url(#linearGradient14264-9);fill-opacity:1;fill-rule:nonzero;stroke:none;stroke-width:0;marker:none;marker-start:none;marker-mid:none;marker-end:none;visibility:visible;display:inline;overflow:visible;enable-background:accumulate"
       d="m 420.09612,229.38996 c -10.65326,0.88549 -21.23846,1.36145 -31.70146,2.60114 l 4.62167,0.58061 0.69673,-0.23224 0.76642,-0.16257 0.74318,-0.25547 0.83609,-0.16258 0.7664,-0.11611 0.81286,-0.1858 0.83608,-0.11613 0.81286,-0.11611 1.78829,-0.1858 1.69539,-0.16257 1.78829,-0.11613 1.76505,-0.0697 3.62303,-0.23225 1.76506,-0.0697 1.78829,-0.11612 1.71861,-0.16258 1.6954,-0.18579 0.7664,-0.11612 0.81286,-0.11613 0.83608,-0.11611 0.76642,-0.1858 0,0 0,0 0,0 0,0 0,0 z m -46.54193,4.59845 c -17.31153,0.94454 -41.35024,9.39296 -33.93102,1.71861 -28.28183,11.74766 -78.4455,28.23141 -106.60053,52.78933 l -0.88253,-5.50422 c -1.38809,1.54676 14.88661,-3.79468 -5.15584,5.1094 7.47554,13.78266 52.1301,22.06003 52.51249,38.12691 -0.0104,0.0319 0.0305,0.088 0.0976,0.13424 11.20702,-5.02055 19.30217,-3.09533 31.11433,-6.11842 19.84801,-10.98022 -17.07232,4.32041 -7.68732,-4.18042 34.36941,-8.14661 24.37038,-18.53477 69.13939,-22.66712 4.75591,2.4794 -10.97859,3.83664 -14.91014,7.08348 28.59891,-13.0464 90.55068,-10.05075 130.75402,7.24605 46.67142,20.24847 99.11357,80.29737 101.14272,136.79239 l 2.34571,0.53416 c -1.14132,22.49174 3.7362,48.40196 -4.76099,72.25147 l 5.7828,-11.28711 0.047,1.60249 0,1.53281 -0.047,1.48637 -0.07,1.46314 -0.07,1.37025 -0.11616,1.4167 -0.18582,1.27735 -0.20902,1.30057 -0.25541,1.25412 -0.23231,1.30058 -0.2555,1.18444 -0.32508,1.16123 -0.62706,2.36891 -0.76641,2.29922 -0.83608,2.25278 -0.88256,2.29923 -0.95214,2.25278 -0.99871,2.29922 -1.02191,2.34568 -1.02191,2.48502 -0.51081,1.30057 -0.48781,1.30058 -0.5109,1.30057 -0.51091,1.34702 -9.82395,4.62168 c -8.05344,14.58127 0.75386,9.2028 -5.01647,20.83239 -12.61922,10.44892 -38.17607,32.57417 -46.35615,34.5813 -6.02434,-0.11807 3.98666,-6.54234 5.31838,-9.08079 -16.8043,10.7441 -13.50411,16.18409 -39.24943,22.7368 l -0.76642,-1.60249 c -25.47271,11.17056 -54.90827,8.99562 -80.96066,-2.46179 l 13.12185,24.15349 c 48.52975,9.44741 97.01115,0.75465 138.81289,-30.37767 12.80936,-9.32728 26.80699,-25.13761 30.86539,-25.31471 -6.08756,8.50081 1.02306,4.07919 -3.6695,11.63547 12.74592,-19.18586 -5.50889,-7.85183 13.26133,-33.11815 l 6.89757,8.84854 c -2.59986,-15.93904 21.26178,-35.23549 18.78862,-60.38375 5.4534,-7.73338 6.07251,8.25498 0.30198,25.96502 8.05336,-19.65815 2.15115,-22.84202 4.1804,-39.01719 2.21939,5.43109 5.14357,11.21507 6.66536,17.00035 -5.26317,-19.00878 5.38957,-31.99577 7.98924,-43.03503 -2.59967,-1.06261 -8.04473,8.38188 -9.31294,-14.05083 0.19014,-9.74053 2.9166,-5.08114 3.99458,-7.50152 -2.0926,-1.0626 -7.47873,-8.56683 -10.77619,-22.85292 2.40963,-3.36491 6.34066,8.74786 9.63822,9.22013 -2.09269,-11.39346 -5.72587,-20.08467 -5.85257,-28.82163 -9.44855,-18.3594 -3.35879,2.43453 -11.03168,-7.89633 -10.01907,-29.22156 8.37001,-6.78345 9.63822,-20.06598 15.21889,20.60268 23.92087,52.46802 27.91583,65.63248 -3.04378,-16.05709 -8.00343,-31.69742 -14.02764,-46.75095 4.69256,1.83004 -7.42189,-33.12766 6.08487,-9.98654 -14.45804,-49.29293 -61.63046,-95.33983 -105.06763,-117.0051 5.32651,4.54557 12.04774,10.21582 9.63811,11.10131 -21.62357,-11.98379 -17.81817,-12.85244 -20.92535,-17.92932 -17.56502,-6.67078 -18.70982,0.5313 -30.37767,0 -33.16449,-16.35227 -39.56705,-14.66067 -70.06832,-24.87346 l 1.39347,6.03838 c -22.00402,-6.84789 -25.61896,2.59746 -49.39854,0 -1.45848,-1.06261 7.61329,-3.78068 15.09594,-4.78426 -21.2431,2.59748 -20.27871,-3.90787 -41.0145,0.69674 5.07298,-3.36491 10.52501,-5.55044 15.97847,-8.38405 l 6.7e-4,0 0,0 0,0 0,0 0,0 z m 25.03603,7.68731 3.99461,-0.34836 0.25547,-0.48772 -4.25008,0.83608 z m 4.25008,-0.83608 c 6.72168,-1.35777 8.19193,-2.58079 -12.09997,-3.11208 l 1.138,0.16257 1.138,0.1858 1.20768,0.16257 1.13799,0.1858 0.51095,0.0697 0.55738,0.11612 0.58061,0.0465 0.51095,0.11612 0.51093,0.0697 0.48773,0.11613 0.46448,0.0465 0.48771,0.13935 0.44127,0.0465 0.39482,0.11612 0.37159,0.11612 0.39482,0.0697 0.37159,0.11613 0.25547,0.11612 0.32515,0.0465 0.25546,0.13934 0.1858,0.11613 0.1858,0.11612 0.0697,0.0465 0.0465,0.0697 0.0697,0.0465 0.0697,0 0,0.0697 0.0697,0.0465 0,0.0697 0,0.0697 0,0.11612 0,0.0465 -0.0697,0.0697 -0.0697,0.0465 -3e-5,-3e-4 0,0 0,0 0,0 0,0 z m 18.37059,164.94051 c -1.06521,0.0156 -2.12895,0.0608 -3.20498,0.11612 -33.7353,0.53129 -65.25517,20.4998 -75.78159,42.10605 -8.10183,4.76944 -12.8228,13.67168 -16.35006,22.31875 3.19222,5.84176 10.36769,13.15105 9.4756,17.48807 7.73742,-26.03363 26.79969,-48.7601 53.60218,-59.94247 37.09613,-17.11971 80.54176,-10.08699 107.11147,12.93604 -14.12904,-17.21377 -41.83092,-35.5068 -74.85262,-35.02256 0.01,-0.0152 2.41698,-3.95505 0,0 l 0,0 0,0 0,0 z m 94.6399,80.2407 -0.13935,0.0465 -0.18579,0 -0.11616,0.11613 -0.13927,0.0697 -0.11617,0.11613 -0.18579,0.11611 -0.13934,0.11613 -0.11609,0.11612 -0.13943,0.18579 -0.18579,0.16258 -0.11609,0.1858 -0.13935,0.23224 -0.11615,0.1858 -0.20898,0.23224 -0.11609,0.23224 -0.11617,0.23225 -0.13934,0.30192 -0.11609,0.23225 -0.13941,0.30191 -0.1858,0.30192 -0.13927,0.2787 -0.11617,0.30192 -0.0697,0.30191 -0.11616,0.27869 -0.13935,0.3716 -0.11608,0.2787 -0.13942,0.37158 -0.1858,0.6503 -0.1858,0.69673 c 2.15621,1.00356 3.86991,13.46984 5.8991,5.73646 l 0,-0.41804 0.0697,-0.4645 0,-0.41804 0.0465,-0.41804 0,-0.41804 0,-0.41805 0.0697,-0.34836 0,-0.41804 0,-0.34837 0,-0.34837 0,-0.34836 0,-0.37159 0.0697,-0.34838 0,-0.30191 0,-0.34837 -0.0697,-0.30192 0,-0.27869 0,-0.30192 0,-0.30192 0,-0.27869 0,-0.25547 0,-0.2787 -0.0697,-0.25547 0,-0.23224 0,-0.27869 -0.0465,-0.25548 0,-0.16257 0,-0.23225 -0.0697,-0.25547 0,-0.16257 -0.0697,-0.23224 0,-0.1858 -0.0697,-0.1858 0,-0.16256 -0.0464,-0.1858 0,-0.16257 -0.0697,-0.13935 -0.0697,-0.16257 0,-0.11612 -0.0464,-0.1858 -0.0697,-0.11613 0,-0.11611 -0.0697,-0.11613 -0.0697,-0.11612 -0.0465,-0.11613 0,-0.0697 -0.0697,-0.11612 -0.0697,-0.0465 -0.0697,-0.13934 -0.0465,-0.0465 -0.13928,-0.11611 -0.0465,-0.11613 -0.13927,-0.11612 -0.11617,-0.0697 -0.13934,-0.0465 -0.11609,0 -0.13942,0 -0.11608,0 -1.4e-4,6e-5 0,0 0,0 0,0 0,0 z m 124.6692,32.16595 -1.64897,3.90172 c -3.04378,20.30751 -9.64761,40.38214 -19.85691,59.03671 11.22393,-19.65813 18.4621,-41.15508 21.50588,-62.93843 l 0,0 0,0 0,0 0,0 0,0 z m -131.9617,7.12992 c -1.52189,7.02499 -5.58421,13.1204 -9.45238,19.55505 -21.30649,12.45605 -2.02919,-7.44676 0,-15.00304 -22.95521,26.86022 -3.17026,16.12209 -3.99461,23.61934 l 1.25412,-1.64894 1.20768,-1.64895 1.138,-1.71862 1.09155,-1.64894 1.06833,-1.78828 1.02192,-1.69539 0.95217,-1.71862 0.88253,-1.76505 0.83608,-1.76507 0.74318,-1.78829 0.69674,-1.83473 0.69673,-1.81152 0.58065,-1.78829 0.51087,-1.81151 0.37158,-1.90441 0.39486,-1.83474 0,0 0,0 0,0 0,0 0,0 z M 462.13248,566.308 c -9.25818,2.1252 -18.70595,2.17348 -28.21778,1.34701 l -0.51094,0 -0.44127,0.0697 -0.44126,0 -0.44127,0.0465 -0.39481,0 -0.30192,0.0697 -0.32514,0.0465 -0.25547,0.0697 -0.25547,0.0465 -0.25548,0.0697 -0.11611,0.0465 -0.1858,0.11613 -0.13935,0.0697 -0.0697,0.11612 -0.0465,0.11612 -0.0697,0.0697 0,0.11613 0.0697,0.11612 0.0465,0.11612 0.0697,0.11613 0.0697,0.11612 0.11612,0.11612 0.20902,0.11612 0.11612,0.1858 0.25547,0.11613 0.1858,0.11611 0.25547,0.1858 0.25546,0.11613 0.32515,0.11611 0.30191,0.16258 0.32515,0.13935 0.32514,0.16257 0.37159,0.18579 0.3716,0.11613 0.46449,0.16257 0.37159,0.13934 0.44126,0.16257 0.44127,0.1858 0.51094,0.11613 0.44127,0.18579 0.51093,0.16257 0.55739,0.11613 1.02188,0.34837 1.13801,0.30191 1.20767,0.30192 1.20767,0.30192 1.27735,0.27869 1.25413,0.30192 1.34702,0.23225 1.3238,0.23224 1.32379,0.30193 1.39348,0.18578 1.39346,0.23226 c 4.12179,-3.01072 7.81015,-6.013 11.17099,-8.96467 l 0,-1.2e-4 0,0 0,0 0,0 0,0 z m -37.87918,85.30364 2.78695,5.15584 c 17.75794,3.23972 34.56763,2.89947 47.70315,-2.20633 -14.98537,0.49185 -32.99297,0.41506 -50.4901,-2.94951 l 0,0 0,0 0,0 0,0 0,0 z"
       id="path7365"
       sodipodi:nodetypes="ccccccccccccccccccccccccccccccccccccccccccccccccccccccccccccccccccccccccccccccccccccccccccccccccccccccccccccccccccccccccccccccccccccccccccccccccccccccccccccccccccccccccccccccccccccccccccccccccccccccccccccccccccccccccccccccccccccccccccccccccccccccccccccccccccccccccccccccccccccccccccccccccccccccccccccccccccccccccccccccccccccccccccccccccccccccccccccccccccccccccccccccc" />
    <path
       style="font-style:normal;font-variant:normal;font-weight:normal;font-stretch:normal;letter-spacing:normal;word-spacing:normal;text-anchor:start;color:#000000;fill:url(#linearGradient14278-7);fill-opacity:1;fill-rule:nonzero;stroke:none;stroke-width:0;marker:none;marker-start:none;marker-mid:none;marker-end:none;visibility:visible;display:inline;overflow:visible;enable-background:accumulate"
       d="m 108.29059,396.41029 c 2.47056,0.27728 4.94641,0.55311 7.41904,0.78972 l -0.48428,0.0622 -0.57074,-0.0218 -0.53113,-0.0177 -0.50546,-0.006 -1.12754,-0.0516 -1.16269,-0.11145 -1.214,-0.13553 -1.22348,-0.18339 -0.43573,-0.0453 -0.16399,-0.27958 0,1.6e-4 0,0 z m 17.71283,12.06083 c 23.36358,13.18865 27.43999,12.59584 53.97541,31.55317 8.2094,2.07532 7.44791,-4.10249 21.07302,4.18699 3.25066,4.89497 0.79617,5.13289 18.38264,18.65633 1.4808,-0.44701 -4.40621,-6.37435 -9.08203,-11.10767 34.80825,25.04747 77.4771,72.07345 98.13931,117.43501 -14.36174,-22.22145 1.57609,10.1986 -2.0742,7.94182 7.42623,14.07465 14.23413,28.51414 19.80899,43.06103 -5.6109,-12.13295 -18.5143,-41.35444 -33.51632,-61.57843 1.98494,11.51155 -15.61164,-10.78641 -2.35809,16.30411 7.55144,10.14672 -1.15529,-8.98145 9.35964,8.47365 1.97232,7.70448 6.36261,15.85514 10.27186,26.16777 -2.38964,-0.86994 -7.73679,-12.07256 -8.68276,-9.4441 5.36892,13.02368 10.72773,20.37529 12.40868,21.59853 -0.22579,1.98099 -3.1201,-2.4844 -1.15117,6.05935 5.71823,19.91164 7.45843,12.35112 9.49123,13.64429 0.57738,9.35436 -4.01224,19.30013 3.73905,36.74983 -2.30357,-5.29977 -5.57639,-10.78841 -8.28752,-15.87267 2.08093,13.95169 6.85803,17.56003 5.51081,33.74599 0.18364,-14.78655 -3.69408,-28.92493 -5.80953,-22.8724 7.13989,22.46688 -5.24326,36.1562 -0.002,50.53803 l -6.68888,-8.73995 c -6.97126,18.08338 1.12507,13.21133 -1.21365,24.12098 l -1.55793,-2.656 c -0.10559,-0.7714 0.0206,-1.89006 0.73694,-3.88021 -0.59691,-0.0867 -1.36658,0.40469 -2.25972,1.28414 l -16.56321,-28.23736 c 0.0612,-1.23476 0.26118,-2.71978 0.66673,-4.66574 l 5.82328,-2.72344 0.0615,-1.10002 0.0732,-1.08004 0.0593,-1.07212 0.0732,-1.08003 0.17712,-2.04438 0.19383,-1.92076 0.1916,-1.89285 0.17541,-1.85703 0.11238,-1.90109 0.0962,-1.86526 0.0471,-1.91724 -0.079,-2.00536 -0.0289,-0.96876 -0.0663,-1.00077 -0.13655,-1.1206 -0.0875,-1.0686 -0.12483,-1.10062 -0.1505,-1.11267 -0.23473,-1.22455 -0.23697,-1.19667 -0.26987,-1.28447 -0.29554,-1.29651 -0.31895,-1.33645 -0.39149,-1.42837 -1.5577,9.1394 c 0.75115,-19.81246 -8.23494,-43.2764 -12.29423,-62.90795 l -1.73334,-0.79895 c -13.59261,-49.9854 -62.93092,-110.0474 -99.67738,-134.29405 -14.07343,-8.74273 -25.11543,-14.11031 -35.42258,-17.67982 -7.12802,-15.00066 -22.53172,-18.41538 -18.29516,-49.32646 z m 203.57495,325.59376 c 3.05946,-15.00589 3.32052,-31.74357 1.05218,-49.19121 l 0.29665,-3.20399 c 2.58663,18.74608 2.19807,36.64617 -1.34883,52.3952 z"
       id="path7566"
       sodipodi:nodetypes="ccccccccccccccccccccccccccccccccccccccccccccccccccccccccccccccccccccccccccccc" />
    <path
       style="font-style:normal;font-variant:normal;font-weight:normal;font-stretch:normal;letter-spacing:normal;word-spacing:normal;text-anchor:start;color:#000000;fill:url(#linearGradient15878);fill-opacity:1;fill-rule:nonzero;stroke:none;stroke-width:0;marker:none;marker-start:none;marker-mid:none;marker-end:none;visibility:visible;display:inline;overflow:visible;enable-background:accumulate"
       d="m 214.47195,283.27929 3.85292,3.80144 c -31.11274,8.04393 -50.59506,32.14955 -71.91589,47.53736 9.12334,-1.43929 -7.82116,12.50268 -16.07041,25.45442 4.54806,-2.64564 8.59316,-5.66365 13.38431,-7.71247 -12.55079,13.54928 -22.30165,30.11377 -33.53006,45.19342 4.02322,-5.26149 10.054,-10.80301 10.23696,-9.06583 -0.36532,9.88537 -4.94969,49.97694 23.8688,69.30995 -3.67572,-3.5648 -2.509,-6.55471 -4.32722,-9.9305 -16.1222,-29.93337 30.63848,-53.01075 36.10881,-69.96506 -4.20437,1.22646 -12.08114,12.7332 -11.92015,7.62596 22.63208,-32.53857 24.30077,-31.31739 45.49916,-53.48422 10.61287,-2.5032 -17.20824,17.58693 -0.14246,8.33515 11.25768,-11.31048 45.49073,-46.02957 70.07953,-14.00261 -10.22357,-34.20131 -30.24771,-45.30846 -47.05023,-43.58176 -1.70943,0.17567 -16.78866,-0.53365 -18.07407,0.48475 l 0,0 0,0 0,0 0,0 0,0 0,0 z"
       id="path15866"
       sodipodi:nodetypes="ccccccccscccccsccccccc" />
    <path
       style="font-style:normal;font-variant:normal;font-weight:normal;font-stretch:normal;letter-spacing:normal;word-spacing:normal;text-anchor:start;color:#000000;fill:url(#linearGradient2720);fill-opacity:1;fill-rule:nonzero;stroke:none;stroke-width:0;marker:none;marker-start:none;marker-mid:none;marker-end:none;visibility:visible;display:inline;overflow:visible;enable-background:accumulate"
       d="m 110.19282,397.55346 0,2e-5 0,-2e-5 z"
       id="path15864" />
    <path
       style="font-style:normal;font-variant:normal;font-weight:normal;font-stretch:normal;letter-spacing:normal;word-spacing:normal;text-anchor:start;opacity:1;color:#000000;fill:url(#linearGradient15878-6);fill-opacity:1;fill-rule:nonzero;stroke:none;stroke-width:0;marker:none;marker-start:none;marker-mid:none;marker-end:none;visibility:visible;display:inline;overflow:visible;enable-background:accumulate"
       d="m 405.98256,616.65138 c -3.44706,24.55565 -14.36806,46.3643 -32.66815,58.95682 l 0.89882,1.48621 c -16.22527,16.34995 -18.96981,10.71856 -34.53132,17.73281 2.52997,0.39826 11.81298,-3.77942 9.28571,0.98038 -5.09773,5.23722 -33.19914,12.64113 -46.71502,16.56204 -9.54631,-1.73641 -5.64351,-4.69202 -12.5984,-6.76629 4.17653,9.63654 0.12154,20.64501 16.56321,28.23736 6.21246,-2.17187 19.58172,-4.17093 29.58082,-7.86354 40.72525,-14.46925 68.02013,-45.68941 82.27588,-86.77486 3.99166,-6.17995 -2.45735,-14.1 -12.09155,-22.55093 l 0,0 0,0 0,0 0,0 0,0 0,0 0,0 z"
       id="path15862" />
    <path
       style="font-style:normal;font-variant:normal;font-weight:normal;font-stretch:normal;letter-spacing:normal;word-spacing:normal;text-anchor:start;color:#000000;fill:url(#linearGradient2722);fill-opacity:1;fill-rule:nonzero;stroke:none;stroke-width:0;marker:none;marker-start:none;marker-mid:none;marker-end:none;visibility:visible;display:inline;overflow:visible;enable-background:accumulate"
       d="m 424.2343,650.71895 c -4.99139,13.87512 -11.99878,26.42919 -18.26534,36.79318 8.76838,-6.68575 15.84703,-17.95079 20.98774,-31.73689 l -2.7224,-5.05629 z"
       id="path15860" />
    <path
       style="font-style:normal;font-variant:normal;font-weight:normal;font-stretch:normal;letter-spacing:normal;word-spacing:normal;text-anchor:start;color:#000000;fill:url(#linearGradient14275-8);fill-opacity:1;fill-rule:nonzero;stroke:none;stroke-width:0;marker:none;marker-start:none;marker-mid:none;marker-end:none;visibility:visible;display:inline;overflow:visible;enable-background:accumulate"
       d="m 313.44337,739.42641 c -5.49563,-0.43288 -3.96433,-2.03506 -5.70318,-2.98963 l 1.55794,2.656 c 1.18587,0.15256 2.53418,0.26042 4.14524,0.33363 z"
       id="path7558" />
    <path
       sodipodi:nodetypes="cccscccc"
       style="font-style:normal;font-variant:normal;font-weight:normal;font-stretch:normal;letter-spacing:normal;word-spacing:normal;text-anchor:start;opacity:1;color:#000000;fill:url(#linearGradient15878-5);fill-opacity:1;fill-rule:nonzero;stroke:none;stroke-width:0;marker:none;marker-start:none;marker-mid:none;marker-end:none;visibility:visible;display:inline;overflow:visible;enable-background:accumulate"
       d="m 327.63983,466.26368 c -5.91105,-3.61349 -11.96833,-4.75754 -15.98948,-3.15272 -17.51495,-10.17689 -39.77409,-4.15895 -45.2046,19.54124 -0.20152,0.7245 -0.48215,1.44426 -0.57036,2.20767 -1.90086,16.45153 7.48648,28.90759 18.07792,53.12406 -8.27624,-22.96946 -15.12162,-45.59214 3.05108,-58.10139 11.55833,-9.4423 49.65913,-10.68018 47.56019,10.84009 4.10014,-12.58193 -4.59445,-23.07642 -6.92475,-24.45895 z"
       id="path5701" />
  </g>
</svg>
